<mxfile host="65bd71144e" pages="4">
    <diagram id="TXxKZm-eEdj10LjdIWAO" name="class digram">
        <mxGraphModel dx="550" dy="437" grid="1" gridSize="10" guides="1" tooltips="1" connect="1" arrows="1" fold="1" page="1" pageScale="1" pageWidth="850" pageHeight="1100" background="#ffffff" math="0" shadow="0">
            <root>
                <mxCell id="0"/>
                <mxCell id="1" parent="0"/>
                <mxCell id="TmRyfmIdXL77wljJaiCa-18" value="&lt;p style=&quot;margin: 0px ; margin-top: 4px ; text-align: center&quot;&gt;&lt;b&gt;Groups&lt;/b&gt;&lt;/p&gt;&lt;hr size=&quot;1&quot;&gt;&lt;p style=&quot;margin: 0px ; margin-left: 4px&quot;&gt;- group name: string&lt;/p&gt;&lt;p style=&quot;margin: 0px ; margin-left: 4px&quot;&gt;- group permission: strings&lt;/p&gt;&lt;hr size=&quot;1&quot;&gt;&lt;p style=&quot;margin: 0px ; margin-left: 4px&quot;&gt;+ add groups()&lt;/p&gt;" style="verticalAlign=top;align=left;overflow=fill;fontSize=12;fontFamily=Helvetica;html=1;fillColor=#dae8fc;strokeColor=#6c8ebf;labelBackgroundColor=none;labelBorderColor=none;fontColor=#000000;" parent="1" vertex="1">
                    <mxGeometry x="40" y="40" width="160" height="100" as="geometry"/>
                </mxCell>
                <mxCell id="TmRyfmIdXL77wljJaiCa-19" value="&lt;p style=&quot;margin: 0px ; margin-top: 4px ; text-align: center&quot;&gt;&lt;b&gt;User&lt;/b&gt;&lt;/p&gt;&lt;hr size=&quot;1&quot;&gt;&lt;p style=&quot;margin: 0px ; margin-left: 4px&quot;&gt;- username: email&lt;/p&gt;&lt;p style=&quot;margin: 0px ; margin-left: 4px&quot;&gt;- password: password(argon)&lt;/p&gt;&lt;p style=&quot;margin: 0px ; margin-left: 4px&quot;&gt;- first name: string&lt;/p&gt;&lt;p style=&quot;margin: 0px ; margin-left: 4px&quot;&gt;- last name: string&lt;/p&gt;&lt;p style=&quot;margin: 0px ; margin-left: 4px&quot;&gt;- is staff : bool&lt;/p&gt;&lt;p style=&quot;margin: 0px ; margin-left: 4px&quot;&gt;- is active: bool&lt;/p&gt;&lt;p style=&quot;margin: 0px ; margin-left: 4px&quot;&gt;- is super user: bool&lt;/p&gt;&lt;p style=&quot;margin: 0px ; margin-left: 4px&quot;&gt;- Groups: int&lt;/p&gt;&lt;p style=&quot;margin: 0px ; margin-left: 4px&quot;&gt;- last login : data&lt;/p&gt;&lt;p style=&quot;margin: 0px ; margin-left: 4px&quot;&gt;- created: data&lt;/p&gt;&lt;hr size=&quot;1&quot;&gt;&lt;p style=&quot;margin: 0px ; margin-left: 4px&quot;&gt;+ register()&lt;/p&gt;&lt;p style=&quot;margin: 0px ; margin-left: 4px&quot;&gt;+ login()&lt;/p&gt;&lt;p style=&quot;margin: 0px ; margin-left: 4px&quot;&gt;+ create channel()&lt;/p&gt;&lt;p style=&quot;margin: 0px ; margin-left: 4px&quot;&gt;+ like / dislike()&lt;/p&gt;&lt;p style=&quot;margin: 0px ; margin-left: 4px&quot;&gt;+ comment ()&lt;/p&gt;&lt;p style=&quot;margin: 0px ; margin-left: 4px&quot;&gt;+ create library()&lt;/p&gt;&lt;p style=&quot;margin: 0px ; margin-left: 4px&quot;&gt;+ add to watch later()&lt;/p&gt;&lt;p style=&quot;margin: 0px ; margin-left: 4px&quot;&gt;+ history()&lt;/p&gt;&lt;p style=&quot;margin: 0px ; margin-left: 4px&quot;&gt;+ subscribe()&lt;/p&gt;&lt;p style=&quot;margin: 0px ; margin-left: 4px&quot;&gt;+ CURD()&lt;/p&gt;&lt;p style=&quot;margin: 0px ; margin-left: 4px&quot;&gt;+ view video()&lt;/p&gt;&lt;p style=&quot;margin: 0px ; margin-left: 4px&quot;&gt;+ report&amp;nbsp;&lt;/p&gt;&lt;p style=&quot;margin: 0px ; margin-left: 4px&quot;&gt;+ add catagories&lt;/p&gt;" style="verticalAlign=top;align=left;overflow=fill;fontSize=12;fontFamily=Helvetica;html=1;fillColor=#d5e8d4;strokeColor=#82b366;fontColor=#000000;" parent="1" vertex="1">
                    <mxGeometry x="360" y="40" width="160" height="380" as="geometry"/>
                </mxCell>
                <mxCell id="TmRyfmIdXL77wljJaiCa-20" value="&lt;p style=&quot;margin: 0px ; margin-top: 4px ; text-align: center&quot;&gt;&lt;b&gt;user Extended&lt;/b&gt;&lt;/p&gt;&lt;hr size=&quot;1&quot;&gt;&lt;p style=&quot;margin: 0px ; margin-left: 4px&quot;&gt;- user related: int&lt;/p&gt;&lt;p style=&quot;margin: 0px ; margin-left: 4px&quot;&gt;- user profile: image&lt;/p&gt;&lt;p style=&quot;margin: 0px ; margin-left: 4px&quot;&gt;- date of birth: date&lt;/p&gt;&lt;p style=&quot;margin: 0px ; margin-left: 4px&quot;&gt;- address : string&lt;/p&gt;&lt;p style=&quot;margin: 0px ; margin-left: 4px&quot;&gt;- country: string&lt;/p&gt;&lt;p style=&quot;margin: 0px ; margin-left: 4px&quot;&gt;- phone number : number&lt;/p&gt;&lt;hr size=&quot;1&quot;&gt;&lt;p style=&quot;margin: 0px ; margin-left: 4px&quot;&gt;+ CURD()&lt;/p&gt;&lt;p style=&quot;margin: 0px ; margin-left: 4px&quot;&gt;+ create while signup()&lt;/p&gt;" style="verticalAlign=top;align=left;overflow=fill;fontSize=12;fontFamily=Helvetica;html=1;fillColor=#ffe6cc;strokeColor=#d79b00;" parent="1" vertex="1">
                    <mxGeometry x="640" y="40" width="160" height="180" as="geometry"/>
                </mxCell>
                <mxCell id="TmRyfmIdXL77wljJaiCa-21" value="&lt;p style=&quot;margin: 0px ; margin-top: 4px ; text-align: center&quot;&gt;&lt;b&gt;channels&lt;/b&gt;&lt;/p&gt;&lt;hr size=&quot;1&quot;&gt;&lt;p style=&quot;margin: 0px ; margin-left: 4px&quot;&gt;- user related: int&lt;/p&gt;&lt;p style=&quot;margin: 0px ; margin-left: 4px&quot;&gt;- channel name : string&lt;/p&gt;&lt;p style=&quot;margin: 0px ; margin-left: 4px&quot;&gt;- channel description: string&lt;/p&gt;&lt;p style=&quot;margin: 0px ; margin-left: 4px&quot;&gt;- channel cover : image&lt;/p&gt;&lt;p style=&quot;margin: 0px ; margin-left: 4px&quot;&gt;- channel profile : image&lt;/p&gt;&lt;p style=&quot;margin: 0px ; margin-left: 4px&quot;&gt;- library: many to many&lt;/p&gt;&lt;p style=&quot;margin: 0px ; margin-left: 4px&quot;&gt;- video: many to many&lt;/p&gt;&lt;p style=&quot;margin: 0px ; margin-left: 4px&quot;&gt;- can upload video : bool&lt;/p&gt;&lt;p style=&quot;margin: 0px ; margin-left: 4px&quot;&gt;- is live : bool&lt;/p&gt;&lt;hr size=&quot;1&quot;&gt;&lt;p style=&quot;margin: 0px ; margin-left: 4px&quot;&gt;+ CRUD()&lt;/p&gt;&lt;p style=&quot;margin: 0px ; margin-left: 4px&quot;&gt;+ can get live()&lt;/p&gt;&lt;p style=&quot;margin: 0px ; margin-left: 4px&quot;&gt;+ ban from video upload()&lt;/p&gt;" style="verticalAlign=top;align=left;overflow=fill;fontSize=12;fontFamily=Helvetica;html=1;fillColor=#fff2cc;strokeColor=#d6b656;" parent="1" vertex="1">
                    <mxGeometry x="360" y="600" width="160" height="220" as="geometry"/>
                </mxCell>
                <mxCell id="TmRyfmIdXL77wljJaiCa-27" value="&lt;p style=&quot;margin: 0px ; margin-top: 4px ; text-align: center&quot;&gt;&lt;b&gt;video&lt;/b&gt;&lt;/p&gt;&lt;hr size=&quot;1&quot;&gt;&lt;p style=&quot;margin: 0px ; margin-left: 4px&quot;&gt;- channel: int&lt;/p&gt;&lt;p style=&quot;margin: 0px ; margin-left: 4px&quot;&gt;- video name: string&lt;/p&gt;&lt;p style=&quot;margin: 0px ; margin-left: 4px&quot;&gt;- video thumbnail : image&lt;/p&gt;&lt;p style=&quot;margin: 0px ; margin-left: 4px&quot;&gt;- video : video&lt;/p&gt;&lt;p style=&quot;margin: 0px ; margin-left: 4px&quot;&gt;- description: string&amp;nbsp;&lt;/p&gt;&lt;p style=&quot;margin: 0px ; margin-left: 4px&quot;&gt;- comments&lt;/p&gt;&lt;p style=&quot;margin: 0px ; margin-left: 4px&quot;&gt;- like's&lt;/p&gt;&lt;p style=&quot;margin: 0px ; margin-left: 4px&quot;&gt;- dislike's&lt;/p&gt;&lt;p style=&quot;margin: 0px ; margin-left: 4px&quot;&gt;- view's&lt;/p&gt;&lt;p style=&quot;margin: 0px ; margin-left: 4px&quot;&gt;- upload date&lt;/p&gt;&lt;p style=&quot;margin: 0px ; margin-left: 4px&quot;&gt;- publish time&lt;/p&gt;&lt;p style=&quot;margin: 0px ; margin-left: 4px&quot;&gt;- ad's&lt;/p&gt;&lt;p style=&quot;margin: 0px ; margin-left: 4px&quot;&gt;- add catagories&lt;/p&gt;&lt;p style=&quot;margin: 0px ; margin-left: 4px&quot;&gt;- playlist&lt;/p&gt;&lt;hr size=&quot;1&quot;&gt;&lt;p style=&quot;margin: 0px ; margin-left: 4px&quot;&gt;+ CRUD()&lt;/p&gt;&lt;p style=&quot;margin: 0px ; margin-left: 4px&quot;&gt;+ schedule video upload()&lt;/p&gt;&lt;p style=&quot;margin: 0px ; margin-left: 4px&quot;&gt;+ remove comment's&lt;/p&gt;&lt;p style=&quot;margin: 0px ; margin-left: 4px&quot;&gt;+ pin comment's()&lt;/p&gt;&lt;p style=&quot;margin: 0px ; margin-left: 4px&quot;&gt;+ UR catagories()&lt;/p&gt;" style="verticalAlign=top;align=left;overflow=fill;fontSize=12;fontFamily=Helvetica;html=1;fillColor=#e1d5e7;strokeColor=#9673a6;" parent="1" vertex="1">
                    <mxGeometry x="40" y="240" width="160" height="320" as="geometry"/>
                </mxCell>
                <mxCell id="TmRyfmIdXL77wljJaiCa-28" value="&lt;p style=&quot;margin: 0px ; margin-top: 4px ; text-align: center&quot;&gt;&lt;b&gt;comments&lt;/b&gt;&lt;/p&gt;&lt;hr size=&quot;1&quot;&gt;&lt;p style=&quot;margin: 0px ; margin-left: 4px&quot;&gt;- user: int&lt;/p&gt;&lt;p style=&quot;margin: 0px ; margin-left: 4px&quot;&gt;- video: int&lt;/p&gt;&lt;p style=&quot;margin: 0px ; margin-left: 4px&quot;&gt;- comment text&amp;nbsp;&lt;/p&gt;&lt;p style=&quot;margin: 0px ; margin-left: 4px&quot;&gt;- time&lt;/p&gt;&lt;p style=&quot;margin: 0px ; margin-left: 4px&quot;&gt;- is pined&lt;/p&gt;&lt;hr size=&quot;1&quot;&gt;&lt;p style=&quot;margin: 0px ; margin-left: 4px&quot;&gt;+ CRUD()&lt;/p&gt;" style="verticalAlign=top;align=left;overflow=fill;fontSize=12;fontFamily=Helvetica;html=1;fillColor=#ffff88;strokeColor=#36393d;" parent="1" vertex="1">
                    <mxGeometry x="240" y="920" width="160" height="130" as="geometry"/>
                </mxCell>
                <mxCell id="TmRyfmIdXL77wljJaiCa-29" value="&lt;p style=&quot;margin: 0px ; margin-top: 4px ; text-align: center&quot;&gt;&lt;b&gt;like / dislike&lt;/b&gt;&lt;/p&gt;&lt;hr size=&quot;1&quot;&gt;&lt;p style=&quot;margin: 0px ; margin-left: 4px&quot;&gt;- user: int&lt;/p&gt;&lt;p style=&quot;margin: 0px ; margin-left: 4px&quot;&gt;- like : bool&lt;/p&gt;&lt;p style=&quot;margin: 0px ; margin-left: 4px&quot;&gt;- dislike : bool&lt;/p&gt;&lt;hr size=&quot;1&quot;&gt;&lt;p style=&quot;margin: 0px ; margin-left: 4px&quot;&gt;+ CR()&lt;/p&gt;" style="verticalAlign=top;align=left;overflow=fill;fontSize=12;fontFamily=Helvetica;html=1;fillColor=#cdeb8b;strokeColor=#36393d;" parent="1" vertex="1">
                    <mxGeometry x="40" y="920" width="160" height="110" as="geometry"/>
                </mxCell>
                <mxCell id="TmRyfmIdXL77wljJaiCa-30" value="&lt;p style=&quot;margin: 0px ; margin-top: 4px ; text-align: center&quot;&gt;&lt;b&gt;views / History&lt;/b&gt;&lt;/p&gt;&lt;hr size=&quot;1&quot;&gt;&lt;p style=&quot;margin: 0px ; margin-left: 4px&quot;&gt;- user: int&lt;/p&gt;&lt;p style=&quot;margin: 0px ; margin-left: 4px&quot;&gt;- video : int&lt;/p&gt;&lt;p style=&quot;margin: 0px ; margin-left: 4px&quot;&gt;- watch time: time&lt;/p&gt;&lt;hr size=&quot;1&quot;&gt;&lt;p style=&quot;margin: 0px ; margin-left: 4px&quot;&gt;+ save watch time()&lt;/p&gt;&lt;p style=&quot;margin: 0px ; margin-left: 4px&quot;&gt;+ add view to video()&lt;/p&gt;" style="verticalAlign=top;align=left;overflow=fill;fontSize=12;fontFamily=Helvetica;html=1;fillColor=#eeeeee;strokeColor=#36393d;" parent="1" vertex="1">
                    <mxGeometry x="640" y="530" width="160" height="120" as="geometry"/>
                </mxCell>
                <mxCell id="TmRyfmIdXL77wljJaiCa-31" value="&lt;p style=&quot;margin: 0px ; margin-top: 4px ; text-align: center&quot;&gt;&lt;b&gt;library&lt;/b&gt;&lt;/p&gt;&lt;hr size=&quot;1&quot;&gt;&lt;p style=&quot;margin: 0px ; margin-left: 4px&quot;&gt;- name: string&lt;/p&gt;&lt;p style=&quot;margin: 0px ; margin-left: 4px&quot;&gt;- video's : many to many&lt;/p&gt;&lt;p style=&quot;margin: 0px ; margin-left: 4px&quot;&gt;- is public: bool&lt;/p&gt;&lt;hr size=&quot;1&quot;&gt;&lt;p style=&quot;margin: 0px ; margin-left: 4px&quot;&gt;+ CRUD()&lt;/p&gt;&lt;p style=&quot;margin: 0px ; margin-left: 4px&quot;&gt;+ can public the playlist ()&lt;/p&gt;" style="verticalAlign=top;align=left;overflow=fill;fontSize=12;fontFamily=Helvetica;html=1;fillColor=#f9f7ed;strokeColor=#36393d;" parent="1" vertex="1">
                    <mxGeometry x="640" y="720" width="160" height="120" as="geometry"/>
                </mxCell>
                <mxCell id="TmRyfmIdXL77wljJaiCa-32" value="&lt;p style=&quot;margin: 0px ; margin-top: 4px ; text-align: center&quot;&gt;&lt;b&gt;subscriber&lt;/b&gt;&lt;/p&gt;&lt;hr size=&quot;1&quot;&gt;&lt;p style=&quot;margin: 0px ; margin-left: 4px&quot;&gt;- user : int&lt;/p&gt;&lt;p style=&quot;margin: 0px ; margin-left: 4px&quot;&gt;- channel : int&lt;/p&gt;&lt;hr size=&quot;1&quot;&gt;&lt;p style=&quot;margin: 0px ; margin-left: 4px&quot;&gt;+ can subscribe()&lt;/p&gt;&lt;p style=&quot;margin: 0px ; margin-left: 4px&quot;&gt;+ unsubscribe()&lt;/p&gt;" style="verticalAlign=top;align=left;overflow=fill;fontSize=12;fontFamily=Helvetica;html=1;fillColor=#f8cecc;strokeColor=#b85450;gradientColor=#ea6b66;" parent="1" vertex="1">
                    <mxGeometry x="30" y="600" width="160" height="110" as="geometry"/>
                </mxCell>
                <mxCell id="TmRyfmIdXL77wljJaiCa-33" value="&lt;p style=&quot;margin: 0px ; margin-top: 4px ; text-align: center&quot;&gt;&lt;b&gt;watch later&lt;/b&gt;&lt;/p&gt;&lt;hr size=&quot;1&quot;&gt;&lt;p style=&quot;margin: 0px ; margin-left: 4px&quot;&gt;- user: int&lt;/p&gt;&lt;p style=&quot;margin: 0px ; margin-left: 4px&quot;&gt;- video : int&lt;/p&gt;&lt;hr size=&quot;1&quot;&gt;&lt;p style=&quot;margin: 0px ; margin-left: 4px&quot;&gt;+ CRUD()&lt;/p&gt;" style="verticalAlign=top;align=left;overflow=fill;fontSize=12;fontFamily=Helvetica;html=1;fillColor=#dae8fc;strokeColor=#6c8ebf;gradientColor=#7ea6e0;" parent="1" vertex="1">
                    <mxGeometry x="440" y="920" width="160" height="100" as="geometry"/>
                </mxCell>
                <mxCell id="TmRyfmIdXL77wljJaiCa-34" value="&lt;p style=&quot;margin: 0px ; margin-top: 4px ; text-align: center&quot;&gt;&lt;b&gt;AD'S&lt;/b&gt;&lt;/p&gt;&lt;hr size=&quot;1&quot;&gt;&lt;p style=&quot;margin: 0px ; margin-left: 4px&quot;&gt;- ad's video: video&lt;/p&gt;&lt;p style=&quot;margin: 0px ; margin-left: 4px&quot;&gt;- link : url&lt;/p&gt;&lt;p style=&quot;margin: 0px ; margin-left: 4px&quot;&gt;- date : date&lt;/p&gt;&lt;hr size=&quot;1&quot;&gt;&lt;p style=&quot;margin: 0px ; margin-left: 4px&quot;&gt;+ CRUD()&lt;/p&gt;" style="verticalAlign=top;align=left;overflow=fill;fontSize=12;fontFamily=Helvetica;html=1;fillColor=#e6d0de;strokeColor=#996185;gradientColor=#d5739d;" parent="1" vertex="1">
                    <mxGeometry x="640" y="920" width="160" height="110" as="geometry"/>
                </mxCell>
                <mxCell id="TmRyfmIdXL77wljJaiCa-42" value="" style="endArrow=none;html=1;rounded=0;" parent="1" edge="1">
                    <mxGeometry relative="1" as="geometry">
                        <mxPoint x="520" y="80" as="sourcePoint"/>
                        <mxPoint x="640" y="80" as="targetPoint"/>
                    </mxGeometry>
                </mxCell>
                <mxCell id="TmRyfmIdXL77wljJaiCa-43" value="1" style="resizable=0;html=1;align=right;verticalAlign=bottom;" parent="TmRyfmIdXL77wljJaiCa-42" connectable="0" vertex="1">
                    <mxGeometry x="1" relative="1" as="geometry"/>
                </mxCell>
                <mxCell id="TmRyfmIdXL77wljJaiCa-44" value="" style="endArrow=none;html=1;rounded=0;exitX=0.5;exitY=1;exitDx=0;exitDy=0;" parent="1" source="TmRyfmIdXL77wljJaiCa-19" edge="1">
                    <mxGeometry relative="1" as="geometry">
                        <mxPoint x="480" y="550" as="sourcePoint"/>
                        <mxPoint x="640" y="550" as="targetPoint"/>
                        <Array as="points">
                            <mxPoint x="440" y="550"/>
                        </Array>
                    </mxGeometry>
                </mxCell>
                <mxCell id="TmRyfmIdXL77wljJaiCa-45" value="N" style="resizable=0;html=1;align=right;verticalAlign=bottom;" parent="TmRyfmIdXL77wljJaiCa-44" connectable="0" vertex="1">
                    <mxGeometry x="1" relative="1" as="geometry"/>
                </mxCell>
                <mxCell id="TmRyfmIdXL77wljJaiCa-46" value="" style="endArrow=none;html=1;rounded=0;exitX=1.014;exitY=0.843;exitDx=0;exitDy=0;exitPerimeter=0;" parent="1" source="TmRyfmIdXL77wljJaiCa-19" edge="1">
                    <mxGeometry relative="1" as="geometry">
                        <mxPoint x="560" y="360" as="sourcePoint"/>
                        <mxPoint x="640" y="740" as="targetPoint"/>
                        <Array as="points">
                            <mxPoint x="560" y="361"/>
                            <mxPoint x="560" y="740"/>
                        </Array>
                    </mxGeometry>
                </mxCell>
                <mxCell id="TmRyfmIdXL77wljJaiCa-47" value="N" style="resizable=0;html=1;align=right;verticalAlign=bottom;" parent="TmRyfmIdXL77wljJaiCa-46" connectable="0" vertex="1">
                    <mxGeometry x="1" relative="1" as="geometry"/>
                </mxCell>
                <mxCell id="TmRyfmIdXL77wljJaiCa-49" value="" style="endArrow=none;html=1;rounded=0;exitX=0.25;exitY=1;exitDx=0;exitDy=0;entryX=0.25;entryY=0;entryDx=0;entryDy=0;" parent="1" source="TmRyfmIdXL77wljJaiCa-19" target="TmRyfmIdXL77wljJaiCa-21" edge="1">
                    <mxGeometry relative="1" as="geometry">
                        <mxPoint x="490" y="470" as="sourcePoint"/>
                        <mxPoint x="650" y="470" as="targetPoint"/>
                    </mxGeometry>
                </mxCell>
                <mxCell id="TmRyfmIdXL77wljJaiCa-50" value="1" style="resizable=0;html=1;align=right;verticalAlign=bottom;" parent="TmRyfmIdXL77wljJaiCa-49" connectable="0" vertex="1">
                    <mxGeometry x="1" relative="1" as="geometry"/>
                </mxCell>
                <mxCell id="TmRyfmIdXL77wljJaiCa-51" value="" style="endArrow=none;html=1;rounded=0;exitX=0.5;exitY=1;exitDx=0;exitDy=0;" parent="1" source="TmRyfmIdXL77wljJaiCa-21" target="TmRyfmIdXL77wljJaiCa-27" edge="1">
                    <mxGeometry relative="1" as="geometry">
                        <mxPoint x="490" y="770" as="sourcePoint"/>
                        <mxPoint x="650" y="770" as="targetPoint"/>
                        <Array as="points">
                            <mxPoint x="440" y="880"/>
                            <mxPoint x="240" y="880"/>
                            <mxPoint x="240" y="450"/>
                        </Array>
                    </mxGeometry>
                </mxCell>
                <mxCell id="TmRyfmIdXL77wljJaiCa-52" value="N" style="resizable=0;html=1;align=right;verticalAlign=bottom;" parent="TmRyfmIdXL77wljJaiCa-51" connectable="0" vertex="1">
                    <mxGeometry x="1" relative="1" as="geometry"/>
                </mxCell>
                <mxCell id="TmRyfmIdXL77wljJaiCa-53" value="" style="endArrow=none;html=1;rounded=0;" parent="1" edge="1">
                    <mxGeometry relative="1" as="geometry">
                        <mxPoint x="190" y="620" as="sourcePoint"/>
                        <mxPoint x="360" y="620" as="targetPoint"/>
                    </mxGeometry>
                </mxCell>
                <mxCell id="TmRyfmIdXL77wljJaiCa-54" value="N" style="resizable=0;html=1;align=right;verticalAlign=bottom;" parent="TmRyfmIdXL77wljJaiCa-53" connectable="0" vertex="1">
                    <mxGeometry x="1" relative="1" as="geometry">
                        <mxPoint x="-160" as="offset"/>
                    </mxGeometry>
                </mxCell>
                <mxCell id="TmRyfmIdXL77wljJaiCa-55" value="" style="endArrow=none;html=1;rounded=0;" parent="1" edge="1">
                    <mxGeometry relative="1" as="geometry">
                        <mxPoint x="200" y="80" as="sourcePoint"/>
                        <mxPoint x="360" y="80" as="targetPoint"/>
                        <Array as="points">
                            <mxPoint x="280" y="80"/>
                        </Array>
                    </mxGeometry>
                </mxCell>
                <mxCell id="TmRyfmIdXL77wljJaiCa-56" value="M" style="resizable=0;html=1;align=left;verticalAlign=bottom;" parent="TmRyfmIdXL77wljJaiCa-55" connectable="0" vertex="1">
                    <mxGeometry x="-1" relative="1" as="geometry"/>
                </mxCell>
                <mxCell id="TmRyfmIdXL77wljJaiCa-57" value="N" style="resizable=0;html=1;align=right;verticalAlign=bottom;" parent="TmRyfmIdXL77wljJaiCa-55" connectable="0" vertex="1">
                    <mxGeometry x="1" relative="1" as="geometry"/>
                </mxCell>
                <mxCell id="TmRyfmIdXL77wljJaiCa-58" value="" style="endArrow=none;html=1;rounded=0;exitX=0.5;exitY=1;exitDx=0;exitDy=0;entryX=1;entryY=0.75;entryDx=0;entryDy=0;" parent="1" source="TmRyfmIdXL77wljJaiCa-31" edge="1">
                    <mxGeometry relative="1" as="geometry">
                        <mxPoint x="440" y="769.9999999999998" as="sourcePoint"/>
                        <mxPoint x="200" y="400" as="targetPoint"/>
                        <Array as="points">
                            <mxPoint x="720" y="900"/>
                            <mxPoint x="280" y="900"/>
                            <mxPoint x="280" y="610"/>
                            <mxPoint x="280" y="400"/>
                        </Array>
                    </mxGeometry>
                </mxCell>
                <mxCell id="TmRyfmIdXL77wljJaiCa-59" value="N" style="resizable=0;html=1;align=right;verticalAlign=bottom;" parent="TmRyfmIdXL77wljJaiCa-58" connectable="0" vertex="1">
                    <mxGeometry x="1" relative="1" as="geometry">
                        <mxPoint x="520" y="460" as="offset"/>
                    </mxGeometry>
                </mxCell>
                <mxCell id="TmRyfmIdXL77wljJaiCa-68" value="N" style="resizable=0;html=1;align=right;verticalAlign=bottom;" parent="TmRyfmIdXL77wljJaiCa-58" connectable="0" vertex="1">
                    <mxGeometry x="1" relative="1" as="geometry">
                        <mxPoint x="-90" y="200" as="offset"/>
                    </mxGeometry>
                </mxCell>
                <mxCell id="TmRyfmIdXL77wljJaiCa-63" value="" style="endArrow=none;html=1;rounded=0;entryX=0.5;entryY=0;entryDx=0;entryDy=0;" parent="1" target="TmRyfmIdXL77wljJaiCa-34" edge="1">
                    <mxGeometry relative="1" as="geometry">
                        <mxPoint x="720" y="900" as="sourcePoint"/>
                        <mxPoint x="620" y="930" as="targetPoint"/>
                    </mxGeometry>
                </mxCell>
                <mxCell id="TmRyfmIdXL77wljJaiCa-64" value="" style="endArrow=none;html=1;rounded=0;entryX=0.5;entryY=0;entryDx=0;entryDy=0;" parent="1" target="TmRyfmIdXL77wljJaiCa-33" edge="1">
                    <mxGeometry relative="1" as="geometry">
                        <mxPoint x="520" y="900" as="sourcePoint"/>
                        <mxPoint x="620" y="930" as="targetPoint"/>
                    </mxGeometry>
                </mxCell>
                <mxCell id="TmRyfmIdXL77wljJaiCa-65" value="" style="endArrow=none;html=1;rounded=0;entryX=0.5;entryY=0;entryDx=0;entryDy=0;" parent="1" edge="1">
                    <mxGeometry relative="1" as="geometry">
                        <mxPoint x="319.83000000000004" y="900" as="sourcePoint"/>
                        <mxPoint x="319.83000000000004" y="920" as="targetPoint"/>
                    </mxGeometry>
                </mxCell>
                <mxCell id="TmRyfmIdXL77wljJaiCa-66" value="" style="endArrow=none;html=1;rounded=0;entryX=0.5;entryY=0;entryDx=0;entryDy=0;" parent="1" edge="1">
                    <mxGeometry relative="1" as="geometry">
                        <mxPoint x="280" y="900" as="sourcePoint"/>
                        <mxPoint x="109.83000000000004" y="920" as="targetPoint"/>
                        <Array as="points">
                            <mxPoint x="110" y="900"/>
                        </Array>
                    </mxGeometry>
                </mxCell>
                <mxCell id="TmRyfmIdXL77wljJaiCa-67" value="" style="endArrow=none;html=1;rounded=0;entryX=0.5;entryY=0;entryDx=0;entryDy=0;" parent="1" target="TmRyfmIdXL77wljJaiCa-32" edge="1">
                    <mxGeometry relative="1" as="geometry">
                        <mxPoint x="400" y="490" as="sourcePoint"/>
                        <mxPoint x="520" y="430" as="targetPoint"/>
                        <Array as="points">
                            <mxPoint x="320" y="560"/>
                        </Array>
                    </mxGeometry>
                </mxCell>
                <mxCell id="Z9kSdSbr6tmM8HHwvce8-1" value="&lt;p style=&quot;margin: 0px ; margin-top: 4px ; text-align: center&quot;&gt;&lt;b&gt;report&amp;nbsp;&lt;/b&gt;&lt;/p&gt;&lt;hr size=&quot;1&quot;&gt;&lt;p style=&quot;margin: 0px ; margin-left: 4px&quot;&gt;- user related: int&lt;/p&gt;&lt;p style=&quot;margin: 0px ; margin-left: 4px&quot;&gt;- channel id: int (if)&lt;/p&gt;&lt;p style=&quot;margin: 0px ; margin-left: 4px&quot;&gt;- video id : int(if)&lt;/p&gt;&lt;p style=&quot;margin: 0px ; margin-left: 4px&quot;&gt;- report for : choice&lt;/p&gt;&lt;hr size=&quot;1&quot;&gt;&lt;p style=&quot;margin: 0px ; margin-left: 4px&quot;&gt;+ CURD()&lt;/p&gt;&lt;p style=&quot;margin: 0px ; margin-left: 4px&quot;&gt;+ create while signup()&lt;/p&gt;" style="verticalAlign=top;align=left;overflow=fill;fontSize=12;fontFamily=Helvetica;html=1;fillColor=#d80073;strokeColor=#A50040;fontColor=#ffffff;" parent="1" vertex="1">
                    <mxGeometry x="640" y="240" width="160" height="150" as="geometry"/>
                </mxCell>
                <mxCell id="Z9kSdSbr6tmM8HHwvce8-2" value="" style="endArrow=none;html=1;rounded=0;exitX=1;exitY=0.25;exitDx=0;exitDy=0;entryX=0;entryY=0.5;entryDx=0;entryDy=0;" parent="1" source="TmRyfmIdXL77wljJaiCa-27" target="Z9kSdSbr6tmM8HHwvce8-1" edge="1">
                    <mxGeometry relative="1" as="geometry">
                        <mxPoint x="370" y="290" as="sourcePoint"/>
                        <mxPoint x="530" y="290" as="targetPoint"/>
                        <Array as="points">
                            <mxPoint x="240" y="310"/>
                            <mxPoint x="240" y="440"/>
                            <mxPoint x="600" y="440"/>
                            <mxPoint x="600" y="315"/>
                        </Array>
                    </mxGeometry>
                </mxCell>
                <mxCell id="Z9kSdSbr6tmM8HHwvce8-3" value="N" style="resizable=0;html=1;align=right;verticalAlign=bottom;" parent="Z9kSdSbr6tmM8HHwvce8-2" connectable="0" vertex="1">
                    <mxGeometry x="1" relative="1" as="geometry">
                        <mxPoint x="-430" y="-5" as="offset"/>
                    </mxGeometry>
                </mxCell>
                <mxCell id="6GeAUDr_vQ4eZfIrHcLV-1" value="&lt;p style=&quot;margin: 0px ; margin-top: 4px ; text-align: center&quot;&gt;&lt;b&gt;catagories&amp;nbsp;&lt;/b&gt;&lt;/p&gt;&lt;hr size=&quot;1&quot;&gt;&lt;p style=&quot;margin: 0px ; margin-left: 4px&quot;&gt;- catagories name: int&lt;/p&gt;&lt;p style=&quot;margin: 0px ; margin-left: 4px&quot;&gt;- choices: choice&lt;/p&gt;&lt;hr size=&quot;1&quot;&gt;&lt;p style=&quot;margin: 0px ; margin-left: 4px&quot;&gt;+ CURD()&lt;/p&gt;" style="verticalAlign=top;align=left;overflow=fill;fontSize=12;fontFamily=Helvetica;html=1;fillColor=#647687;strokeColor=#314354;fontColor=#ffffff;" parent="1" vertex="1">
                    <mxGeometry x="40" y="770" width="160" height="90" as="geometry"/>
                </mxCell>
                <mxCell id="6GeAUDr_vQ4eZfIrHcLV-2" style="edgeStyle=orthogonalEdgeStyle;rounded=0;orthogonalLoop=1;jettySize=auto;html=1;exitX=0.5;exitY=1;exitDx=0;exitDy=0;" parent="1" source="6GeAUDr_vQ4eZfIrHcLV-1" target="6GeAUDr_vQ4eZfIrHcLV-1" edge="1">
                    <mxGeometry relative="1" as="geometry"/>
                </mxCell>
                <mxCell id="6GeAUDr_vQ4eZfIrHcLV-3" style="edgeStyle=orthogonalEdgeStyle;rounded=0;orthogonalLoop=1;jettySize=auto;html=1;exitX=0.5;exitY=1;exitDx=0;exitDy=0;" parent="1" source="6GeAUDr_vQ4eZfIrHcLV-1" target="6GeAUDr_vQ4eZfIrHcLV-1" edge="1">
                    <mxGeometry relative="1" as="geometry"/>
                </mxCell>
                <mxCell id="6GeAUDr_vQ4eZfIrHcLV-4" value="" style="endArrow=none;html=1;rounded=0;exitX=1;exitY=1;exitDx=0;exitDy=0;entryX=1;entryY=0;entryDx=0;entryDy=0;" parent="1" source="TmRyfmIdXL77wljJaiCa-27" target="6GeAUDr_vQ4eZfIrHcLV-1" edge="1">
                    <mxGeometry relative="1" as="geometry">
                        <mxPoint x="110" y="710" as="sourcePoint"/>
                        <mxPoint x="270" y="710" as="targetPoint"/>
                        <Array as="points">
                            <mxPoint x="260" y="550"/>
                            <mxPoint x="260" y="770"/>
                        </Array>
                    </mxGeometry>
                </mxCell>
                <mxCell id="6GeAUDr_vQ4eZfIrHcLV-5" value="M" style="resizable=0;html=1;align=left;verticalAlign=bottom;" parent="6GeAUDr_vQ4eZfIrHcLV-4" connectable="0" vertex="1">
                    <mxGeometry x="-1" relative="1" as="geometry"/>
                </mxCell>
                <mxCell id="6GeAUDr_vQ4eZfIrHcLV-6" value="N" style="resizable=0;html=1;align=right;verticalAlign=bottom;" parent="6GeAUDr_vQ4eZfIrHcLV-4" connectable="0" vertex="1">
                    <mxGeometry x="1" relative="1" as="geometry"/>
                </mxCell>
                <mxCell id="3cxWd7r-LbjnEjL78P4y-1" value="&lt;p style=&quot;margin: 0px ; margin-top: 4px ; text-align: center&quot;&gt;&lt;b&gt;playlist&lt;/b&gt;&lt;/p&gt;&lt;hr size=&quot;1&quot;&gt;&lt;p style=&quot;margin: 0px ; margin-left: 4px&quot;&gt;- name: string&lt;/p&gt;&lt;p style=&quot;margin: 0px ; margin-left: 4px&quot;&gt;- channel : int&lt;/p&gt;&lt;p style=&quot;margin: 0px ; margin-left: 4px&quot;&gt;- video's : many to many&lt;/p&gt;&lt;p style=&quot;margin: 0px ; margin-left: 4px&quot;&gt;- is pravite: bool&lt;/p&gt;&lt;hr size=&quot;1&quot;&gt;&lt;p style=&quot;margin: 0px ; margin-left: 4px&quot;&gt;+ CRUD()&lt;/p&gt;&lt;p style=&quot;margin: 0px ; margin-left: 4px&quot;&gt;+ can pritive&amp;nbsp; the playlist ()&lt;/p&gt;" style="verticalAlign=top;align=left;overflow=fill;fontSize=12;fontFamily=Helvetica;html=1;fillColor=#fa6800;strokeColor=#C73500;fontColor=#000000;" parent="1" vertex="1">
                    <mxGeometry x="850" y="440" width="160" height="140" as="geometry"/>
                </mxCell>
                <mxCell id="3cxWd7r-LbjnEjL78P4y-2" value="" style="endArrow=none;html=1;rounded=0;exitX=0.75;exitY=0;exitDx=0;exitDy=0;entryX=0;entryY=0.25;entryDx=0;entryDy=0;" parent="1" source="TmRyfmIdXL77wljJaiCa-21" target="3cxWd7r-LbjnEjL78P4y-1" edge="1">
                    <mxGeometry relative="1" as="geometry">
                        <mxPoint x="350" y="460" as="sourcePoint"/>
                        <mxPoint x="510" y="460" as="targetPoint"/>
                        <Array as="points">
                            <mxPoint x="600" y="475"/>
                        </Array>
                    </mxGeometry>
                </mxCell>
                <mxCell id="3cxWd7r-LbjnEjL78P4y-3" value="N" style="resizable=0;html=1;align=right;verticalAlign=bottom;" parent="3cxWd7r-LbjnEjL78P4y-2" connectable="0" vertex="1">
                    <mxGeometry x="1" relative="1" as="geometry"/>
                </mxCell>
                <mxCell id="3cxWd7r-LbjnEjL78P4y-4" value="" style="endArrow=none;html=1;rounded=0;entryX=0;entryY=0;entryDx=0;entryDy=0;exitX=1;exitY=0.75;exitDx=0;exitDy=0;" parent="1" source="TmRyfmIdXL77wljJaiCa-27" target="3cxWd7r-LbjnEjL78P4y-1" edge="1">
                    <mxGeometry relative="1" as="geometry">
                        <mxPoint x="350" y="570" as="sourcePoint"/>
                        <mxPoint x="510" y="570" as="targetPoint"/>
                    </mxGeometry>
                </mxCell>
                <mxCell id="3cxWd7r-LbjnEjL78P4y-5" value="M" style="resizable=0;html=1;align=left;verticalAlign=bottom;" parent="3cxWd7r-LbjnEjL78P4y-4" connectable="0" vertex="1">
                    <mxGeometry x="-1" relative="1" as="geometry"/>
                </mxCell>
                <mxCell id="3cxWd7r-LbjnEjL78P4y-6" value="N" style="resizable=0;html=1;align=right;verticalAlign=bottom;" parent="3cxWd7r-LbjnEjL78P4y-4" connectable="0" vertex="1">
                    <mxGeometry x="1" relative="1" as="geometry"/>
                </mxCell>
            </root>
        </mxGraphModel>
    </diagram>
    <diagram id="IeR6UIMG9h7ke0Z3B8Ku" name="tree">
        <mxGraphModel dx="550" dy="437" grid="1" gridSize="10" guides="1" tooltips="1" connect="1" arrows="1" fold="1" page="1" pageScale="1" pageWidth="850" pageHeight="1100" math="0" shadow="0">
            <root>
                <mxCell id="eh5BEVfpL_TkkSjE6h3X-0"/>
                <mxCell id="eh5BEVfpL_TkkSjE6h3X-1" parent="eh5BEVfpL_TkkSjE6h3X-0"/>
                <mxCell id="TsNXSjigXuHvcVX3jNiz-32" value="" style="rounded=0;whiteSpace=wrap;html=1;" parent="eh5BEVfpL_TkkSjE6h3X-1" vertex="1">
                    <mxGeometry x="315" y="330" width="120" height="1070" as="geometry"/>
                </mxCell>
                <mxCell id="TsNXSjigXuHvcVX3jNiz-31" value="" style="rounded=0;whiteSpace=wrap;html=1;" parent="eh5BEVfpL_TkkSjE6h3X-1" vertex="1">
                    <mxGeometry x="180" y="330" width="120" height="1140" as="geometry"/>
                </mxCell>
                <mxCell id="TsNXSjigXuHvcVX3jNiz-30" value="" style="rounded=0;whiteSpace=wrap;html=1;" parent="eh5BEVfpL_TkkSjE6h3X-1" vertex="1">
                    <mxGeometry x="35" y="330" width="120" height="950" as="geometry"/>
                </mxCell>
                <mxCell id="TsNXSjigXuHvcVX3jNiz-33" value="" style="rounded=0;whiteSpace=wrap;html=1;" parent="eh5BEVfpL_TkkSjE6h3X-1" vertex="1">
                    <mxGeometry x="660" y="220" width="120" height="450" as="geometry"/>
                </mxCell>
                <mxCell id="eh5BEVfpL_TkkSjE6h3X-2" value="youtube" style="rounded=1;arcSize=10;whiteSpace=wrap;html=1;align=center;" parent="eh5BEVfpL_TkkSjE6h3X-1" vertex="1">
                    <mxGeometry x="375" y="40" width="100" height="40" as="geometry"/>
                </mxCell>
                <mxCell id="TsNXSjigXuHvcVX3jNiz-0" value="watch video" style="ellipse;whiteSpace=wrap;html=1;align=center;fontStyle=4;" parent="eh5BEVfpL_TkkSjE6h3X-1" vertex="1">
                    <mxGeometry x="670" y="410" width="100" height="40" as="geometry"/>
                </mxCell>
                <mxCell id="TsNXSjigXuHvcVX3jNiz-1" value="like and dislike" style="ellipse;whiteSpace=wrap;html=1;align=center;fontStyle=4;" parent="eh5BEVfpL_TkkSjE6h3X-1" vertex="1">
                    <mxGeometry x="45" y="530" width="100" height="40" as="geometry"/>
                </mxCell>
                <mxCell id="TsNXSjigXuHvcVX3jNiz-2" value="report" style="ellipse;whiteSpace=wrap;html=1;align=center;fontStyle=4;" parent="eh5BEVfpL_TkkSjE6h3X-1" vertex="1">
                    <mxGeometry x="45" y="580" width="100" height="40" as="geometry"/>
                </mxCell>
                <mxCell id="TsNXSjigXuHvcVX3jNiz-3" value="add to watch later" style="ellipse;whiteSpace=wrap;html=1;align=center;fontStyle=4;" parent="eh5BEVfpL_TkkSjE6h3X-1" vertex="1">
                    <mxGeometry x="45" y="650" width="100" height="40" as="geometry"/>
                </mxCell>
                <mxCell id="TsNXSjigXuHvcVX3jNiz-4" value="notifications" style="ellipse;whiteSpace=wrap;html=1;align=center;fontStyle=4;" parent="eh5BEVfpL_TkkSjE6h3X-1" vertex="1">
                    <mxGeometry x="190" y="930" width="100" height="40" as="geometry"/>
                </mxCell>
                <mxCell id="TsNXSjigXuHvcVX3jNiz-5" value="history" style="ellipse;whiteSpace=wrap;html=1;align=center;fontStyle=4;" parent="eh5BEVfpL_TkkSjE6h3X-1" vertex="1">
                    <mxGeometry x="45" y="1030" width="100" height="40" as="geometry"/>
                </mxCell>
                <mxCell id="TsNXSjigXuHvcVX3jNiz-6" value="login" style="ellipse;whiteSpace=wrap;html=1;align=center;fontStyle=4;" parent="eh5BEVfpL_TkkSjE6h3X-1" vertex="1">
                    <mxGeometry x="670" y="230" width="100" height="40" as="geometry"/>
                </mxCell>
                <mxCell id="TsNXSjigXuHvcVX3jNiz-7" value="logout" style="ellipse;whiteSpace=wrap;html=1;align=center;fontStyle=4;" parent="eh5BEVfpL_TkkSjE6h3X-1" vertex="1">
                    <mxGeometry x="45" y="350" width="100" height="40" as="geometry"/>
                </mxCell>
                <mxCell id="TsNXSjigXuHvcVX3jNiz-8" value="register" style="ellipse;whiteSpace=wrap;html=1;align=center;fontStyle=4;" parent="eh5BEVfpL_TkkSjE6h3X-1" vertex="1">
                    <mxGeometry x="670" y="290" width="100" height="40" as="geometry"/>
                </mxCell>
                <mxCell id="TsNXSjigXuHvcVX3jNiz-9" value="forget password" style="ellipse;whiteSpace=wrap;html=1;align=center;fontStyle=4;" parent="eh5BEVfpL_TkkSjE6h3X-1" vertex="1">
                    <mxGeometry x="670" y="350" width="100" height="40" as="geometry"/>
                </mxCell>
                <mxCell id="TsNXSjigXuHvcVX3jNiz-10" value="curd channel" style="ellipse;whiteSpace=wrap;html=1;align=center;fontStyle=4;" parent="eh5BEVfpL_TkkSjE6h3X-1" vertex="1">
                    <mxGeometry x="190" y="800" width="100" height="40" as="geometry"/>
                </mxCell>
                <mxCell id="TsNXSjigXuHvcVX3jNiz-11" value="curd video" style="ellipse;whiteSpace=wrap;html=1;align=center;fontStyle=4;" parent="eh5BEVfpL_TkkSjE6h3X-1" vertex="1">
                    <mxGeometry x="190" y="1120" width="100" height="40" as="geometry"/>
                </mxCell>
                <mxCell id="TsNXSjigXuHvcVX3jNiz-12" value="comment's" style="ellipse;whiteSpace=wrap;html=1;align=center;fontStyle=4;" parent="eh5BEVfpL_TkkSjE6h3X-1" vertex="1">
                    <mxGeometry x="45" y="720" width="100" height="40" as="geometry"/>
                </mxCell>
                <mxCell id="TsNXSjigXuHvcVX3jNiz-13" value="live" style="ellipse;whiteSpace=wrap;html=1;align=center;fontStyle=4;" parent="eh5BEVfpL_TkkSjE6h3X-1" vertex="1">
                    <mxGeometry x="190" y="860" width="100" height="40" as="geometry"/>
                </mxCell>
                <mxCell id="TsNXSjigXuHvcVX3jNiz-15" value="search" style="ellipse;whiteSpace=wrap;html=1;align=center;fontStyle=4;" parent="eh5BEVfpL_TkkSjE6h3X-1" vertex="1">
                    <mxGeometry x="670" y="530" width="100" height="40" as="geometry"/>
                </mxCell>
                <mxCell id="TsNXSjigXuHvcVX3jNiz-16" value="subscribe" style="ellipse;whiteSpace=wrap;html=1;align=center;fontStyle=4;" parent="eh5BEVfpL_TkkSjE6h3X-1" vertex="1">
                    <mxGeometry x="45" y="970" width="100" height="40" as="geometry"/>
                </mxCell>
                <mxCell id="TsNXSjigXuHvcVX3jNiz-36" style="edgeStyle=orthogonalEdgeStyle;rounded=0;orthogonalLoop=1;jettySize=auto;html=1;exitX=0.5;exitY=0.5;exitDx=0;exitDy=0;exitPerimeter=0;entryX=1;entryY=0;entryDx=0;entryDy=0;" parent="eh5BEVfpL_TkkSjE6h3X-1" source="TsNXSjigXuHvcVX3jNiz-18" target="TsNXSjigXuHvcVX3jNiz-30" edge="1">
                    <mxGeometry relative="1" as="geometry">
                        <Array as="points">
                            <mxPoint x="95" y="280"/>
                            <mxPoint x="155" y="280"/>
                        </Array>
                    </mxGeometry>
                </mxCell>
                <mxCell id="TsNXSjigXuHvcVX3jNiz-18" value="normal user" style="shape=umlActor;verticalLabelPosition=bottom;verticalAlign=top;html=1;outlineConnect=0;" parent="eh5BEVfpL_TkkSjE6h3X-1" vertex="1">
                    <mxGeometry x="80" y="240" width="30" height="60" as="geometry"/>
                </mxCell>
                <mxCell id="TsNXSjigXuHvcVX3jNiz-29" style="edgeStyle=orthogonalEdgeStyle;rounded=0;orthogonalLoop=1;jettySize=auto;html=1;exitX=0.5;exitY=0;exitDx=0;exitDy=0;exitPerimeter=0;entryX=1;entryY=0.5;entryDx=0;entryDy=0;" parent="eh5BEVfpL_TkkSjE6h3X-1" source="TsNXSjigXuHvcVX3jNiz-19" target="eh5BEVfpL_TkkSjE6h3X-2" edge="1">
                    <mxGeometry relative="1" as="geometry"/>
                </mxCell>
                <mxCell id="TsNXSjigXuHvcVX3jNiz-37" style="edgeStyle=orthogonalEdgeStyle;rounded=0;orthogonalLoop=1;jettySize=auto;html=1;exitX=0.5;exitY=0.5;exitDx=0;exitDy=0;exitPerimeter=0;entryX=1.01;entryY=-0.005;entryDx=0;entryDy=0;entryPerimeter=0;" parent="eh5BEVfpL_TkkSjE6h3X-1" source="TsNXSjigXuHvcVX3jNiz-19" target="TsNXSjigXuHvcVX3jNiz-33" edge="1">
                    <mxGeometry relative="1" as="geometry">
                        <Array as="points">
                            <mxPoint x="781" y="150"/>
                        </Array>
                    </mxGeometry>
                </mxCell>
                <mxCell id="TsNXSjigXuHvcVX3jNiz-19" value="not login user" style="shape=umlActor;verticalLabelPosition=bottom;verticalAlign=top;html=1;outlineConnect=0;" parent="eh5BEVfpL_TkkSjE6h3X-1" vertex="1">
                    <mxGeometry x="690" y="120" width="30" height="60" as="geometry"/>
                </mxCell>
                <mxCell id="TsNXSjigXuHvcVX3jNiz-25" style="edgeStyle=orthogonalEdgeStyle;rounded=0;orthogonalLoop=1;jettySize=auto;html=1;exitX=0;exitY=1;exitDx=0;exitDy=0;exitPerimeter=0;" parent="eh5BEVfpL_TkkSjE6h3X-1" source="TsNXSjigXuHvcVX3jNiz-22" target="TsNXSjigXuHvcVX3jNiz-18" edge="1">
                    <mxGeometry relative="1" as="geometry">
                        <Array as="points">
                            <mxPoint x="120" y="180"/>
                            <mxPoint x="120" y="210"/>
                            <mxPoint x="95" y="210"/>
                        </Array>
                    </mxGeometry>
                </mxCell>
                <mxCell id="TsNXSjigXuHvcVX3jNiz-26" style="edgeStyle=orthogonalEdgeStyle;rounded=0;orthogonalLoop=1;jettySize=auto;html=1;exitX=1;exitY=1;exitDx=0;exitDy=0;exitPerimeter=0;" parent="eh5BEVfpL_TkkSjE6h3X-1" source="TsNXSjigXuHvcVX3jNiz-22" target="TsNXSjigXuHvcVX3jNiz-24" edge="1">
                    <mxGeometry relative="1" as="geometry">
                        <Array as="points">
                            <mxPoint x="280" y="180"/>
                            <mxPoint x="280" y="210"/>
                            <mxPoint x="335" y="210"/>
                        </Array>
                    </mxGeometry>
                </mxCell>
                <mxCell id="TsNXSjigXuHvcVX3jNiz-27" style="edgeStyle=orthogonalEdgeStyle;rounded=0;orthogonalLoop=1;jettySize=auto;html=1;exitX=0.5;exitY=0.5;exitDx=0;exitDy=0;exitPerimeter=0;entryX=0.5;entryY=0;entryDx=0;entryDy=0;entryPerimeter=0;" parent="eh5BEVfpL_TkkSjE6h3X-1" source="TsNXSjigXuHvcVX3jNiz-22" target="TsNXSjigXuHvcVX3jNiz-23" edge="1">
                    <mxGeometry relative="1" as="geometry">
                        <Array as="points">
                            <mxPoint x="180" y="150"/>
                            <mxPoint x="180" y="240"/>
                        </Array>
                    </mxGeometry>
                </mxCell>
                <mxCell id="TsNXSjigXuHvcVX3jNiz-28" style="edgeStyle=orthogonalEdgeStyle;rounded=0;orthogonalLoop=1;jettySize=auto;html=1;exitX=0.5;exitY=0;exitDx=0;exitDy=0;exitPerimeter=0;entryX=0;entryY=0.5;entryDx=0;entryDy=0;" parent="eh5BEVfpL_TkkSjE6h3X-1" source="TsNXSjigXuHvcVX3jNiz-22" target="eh5BEVfpL_TkkSjE6h3X-2" edge="1">
                    <mxGeometry relative="1" as="geometry"/>
                </mxCell>
                <mxCell id="TsNXSjigXuHvcVX3jNiz-22" value="login user" style="shape=umlActor;verticalLabelPosition=bottom;verticalAlign=top;html=1;outlineConnect=0;" parent="eh5BEVfpL_TkkSjE6h3X-1" vertex="1">
                    <mxGeometry x="210" y="120" width="30" height="60" as="geometry"/>
                </mxCell>
                <mxCell id="TsNXSjigXuHvcVX3jNiz-35" style="edgeStyle=orthogonalEdgeStyle;rounded=0;orthogonalLoop=1;jettySize=auto;html=1;exitX=0.5;exitY=0.5;exitDx=0;exitDy=0;exitPerimeter=0;entryX=1;entryY=0;entryDx=0;entryDy=0;" parent="eh5BEVfpL_TkkSjE6h3X-1" source="TsNXSjigXuHvcVX3jNiz-23" target="TsNXSjigXuHvcVX3jNiz-31" edge="1">
                    <mxGeometry relative="1" as="geometry">
                        <Array as="points">
                            <mxPoint x="240" y="280"/>
                            <mxPoint x="300" y="280"/>
                        </Array>
                    </mxGeometry>
                </mxCell>
                <mxCell id="TsNXSjigXuHvcVX3jNiz-23" value="creater user" style="shape=umlActor;verticalLabelPosition=bottom;verticalAlign=top;html=1;outlineConnect=0;" parent="eh5BEVfpL_TkkSjE6h3X-1" vertex="1">
                    <mxGeometry x="225" y="240" width="30" height="60" as="geometry"/>
                </mxCell>
                <mxCell id="TsNXSjigXuHvcVX3jNiz-34" style="edgeStyle=orthogonalEdgeStyle;rounded=0;orthogonalLoop=1;jettySize=auto;html=1;exitX=0.5;exitY=0.5;exitDx=0;exitDy=0;exitPerimeter=0;entryX=1;entryY=0;entryDx=0;entryDy=0;" parent="eh5BEVfpL_TkkSjE6h3X-1" source="TsNXSjigXuHvcVX3jNiz-24" target="TsNXSjigXuHvcVX3jNiz-32" edge="1">
                    <mxGeometry relative="1" as="geometry">
                        <Array as="points">
                            <mxPoint x="435" y="270"/>
                        </Array>
                    </mxGeometry>
                </mxCell>
                <mxCell id="TsNXSjigXuHvcVX3jNiz-24" value="admin user" style="shape=umlActor;verticalLabelPosition=bottom;verticalAlign=top;html=1;outlineConnect=0;" parent="eh5BEVfpL_TkkSjE6h3X-1" vertex="1">
                    <mxGeometry x="345" y="240" width="30" height="60" as="geometry"/>
                </mxCell>
                <mxCell id="TsNXSjigXuHvcVX3jNiz-38" value="logout" style="ellipse;whiteSpace=wrap;html=1;align=center;fontStyle=4;" parent="eh5BEVfpL_TkkSjE6h3X-1" vertex="1">
                    <mxGeometry x="190" y="350" width="100" height="40" as="geometry"/>
                </mxCell>
                <mxCell id="TsNXSjigXuHvcVX3jNiz-39" value="logout" style="ellipse;whiteSpace=wrap;html=1;align=center;fontStyle=4;" parent="eh5BEVfpL_TkkSjE6h3X-1" vertex="1">
                    <mxGeometry x="325" y="350" width="100" height="40" as="geometry"/>
                </mxCell>
                <mxCell id="TsNXSjigXuHvcVX3jNiz-40" value="change password" style="ellipse;whiteSpace=wrap;html=1;align=center;fontStyle=4;" parent="eh5BEVfpL_TkkSjE6h3X-1" vertex="1">
                    <mxGeometry x="45" y="410" width="100" height="40" as="geometry"/>
                </mxCell>
                <mxCell id="TsNXSjigXuHvcVX3jNiz-41" value="change password" style="ellipse;whiteSpace=wrap;html=1;align=center;fontStyle=4;" parent="eh5BEVfpL_TkkSjE6h3X-1" vertex="1">
                    <mxGeometry x="190" y="410" width="100" height="40" as="geometry"/>
                </mxCell>
                <mxCell id="TsNXSjigXuHvcVX3jNiz-42" value="change password" style="ellipse;whiteSpace=wrap;html=1;align=center;fontStyle=4;" parent="eh5BEVfpL_TkkSjE6h3X-1" vertex="1">
                    <mxGeometry x="325" y="410" width="100" height="40" as="geometry"/>
                </mxCell>
                <mxCell id="TsNXSjigXuHvcVX3jNiz-43" value="watch video" style="ellipse;whiteSpace=wrap;html=1;align=center;fontStyle=4;" parent="eh5BEVfpL_TkkSjE6h3X-1" vertex="1">
                    <mxGeometry x="45" y="470" width="100" height="40" as="geometry"/>
                </mxCell>
                <mxCell id="TsNXSjigXuHvcVX3jNiz-44" value="watch video" style="ellipse;whiteSpace=wrap;html=1;align=center;fontStyle=4;" parent="eh5BEVfpL_TkkSjE6h3X-1" vertex="1">
                    <mxGeometry x="190" y="470" width="100" height="40" as="geometry"/>
                </mxCell>
                <mxCell id="TsNXSjigXuHvcVX3jNiz-45" value="watch video" style="ellipse;whiteSpace=wrap;html=1;align=center;fontStyle=4;" parent="eh5BEVfpL_TkkSjE6h3X-1" vertex="1">
                    <mxGeometry x="325" y="470" width="100" height="40" as="geometry"/>
                </mxCell>
                <mxCell id="TsNXSjigXuHvcVX3jNiz-46" value="like and dislike" style="ellipse;whiteSpace=wrap;html=1;align=center;fontStyle=4;" parent="eh5BEVfpL_TkkSjE6h3X-1" vertex="1">
                    <mxGeometry x="190" y="530" width="100" height="40" as="geometry"/>
                </mxCell>
                <mxCell id="TsNXSjigXuHvcVX3jNiz-47" value="like and dislike" style="ellipse;whiteSpace=wrap;html=1;align=center;fontStyle=4;" parent="eh5BEVfpL_TkkSjE6h3X-1" vertex="1">
                    <mxGeometry x="325" y="530" width="100" height="40" as="geometry"/>
                </mxCell>
                <mxCell id="TsNXSjigXuHvcVX3jNiz-48" value="report" style="ellipse;whiteSpace=wrap;html=1;align=center;fontStyle=4;" parent="eh5BEVfpL_TkkSjE6h3X-1" vertex="1">
                    <mxGeometry x="190" y="590" width="100" height="40" as="geometry"/>
                </mxCell>
                <mxCell id="TsNXSjigXuHvcVX3jNiz-49" value="report" style="ellipse;whiteSpace=wrap;html=1;align=center;fontStyle=4;" parent="eh5BEVfpL_TkkSjE6h3X-1" vertex="1">
                    <mxGeometry x="325" y="580" width="100" height="40" as="geometry"/>
                </mxCell>
                <mxCell id="TsNXSjigXuHvcVX3jNiz-50" value="add to watch later" style="ellipse;whiteSpace=wrap;html=1;align=center;fontStyle=4;" parent="eh5BEVfpL_TkkSjE6h3X-1" vertex="1">
                    <mxGeometry x="190" y="650" width="100" height="40" as="geometry"/>
                </mxCell>
                <mxCell id="TsNXSjigXuHvcVX3jNiz-51" value="add to watch later" style="ellipse;whiteSpace=wrap;html=1;align=center;fontStyle=4;" parent="eh5BEVfpL_TkkSjE6h3X-1" vertex="1">
                    <mxGeometry x="325" y="650" width="100" height="40" as="geometry"/>
                </mxCell>
                <mxCell id="TsNXSjigXuHvcVX3jNiz-52" value="comment's" style="ellipse;whiteSpace=wrap;html=1;align=center;fontStyle=4;" parent="eh5BEVfpL_TkkSjE6h3X-1" vertex="1">
                    <mxGeometry x="190" y="720" width="100" height="40" as="geometry"/>
                </mxCell>
                <mxCell id="TsNXSjigXuHvcVX3jNiz-53" value="comment's" style="ellipse;whiteSpace=wrap;html=1;align=center;fontStyle=4;" parent="eh5BEVfpL_TkkSjE6h3X-1" vertex="1">
                    <mxGeometry x="325" y="720" width="100" height="40" as="geometry"/>
                </mxCell>
                <mxCell id="TsNXSjigXuHvcVX3jNiz-54" value="curd channel" style="ellipse;whiteSpace=wrap;html=1;align=center;fontStyle=4;" parent="eh5BEVfpL_TkkSjE6h3X-1" vertex="1">
                    <mxGeometry x="325" y="790" width="100" height="40" as="geometry"/>
                </mxCell>
                <mxCell id="TsNXSjigXuHvcVX3jNiz-55" value="live" style="ellipse;whiteSpace=wrap;html=1;align=center;fontStyle=4;" parent="eh5BEVfpL_TkkSjE6h3X-1" vertex="1">
                    <mxGeometry x="325" y="860" width="100" height="40" as="geometry"/>
                </mxCell>
                <mxCell id="TsNXSjigXuHvcVX3jNiz-56" value="notifications" style="ellipse;whiteSpace=wrap;html=1;align=center;fontStyle=4;" parent="eh5BEVfpL_TkkSjE6h3X-1" vertex="1">
                    <mxGeometry x="315" y="930" width="100" height="40" as="geometry"/>
                </mxCell>
                <mxCell id="TsNXSjigXuHvcVX3jNiz-57" value="notifications" style="ellipse;whiteSpace=wrap;html=1;align=center;fontStyle=4;" parent="eh5BEVfpL_TkkSjE6h3X-1" vertex="1">
                    <mxGeometry x="45" y="780" width="100" height="40" as="geometry"/>
                </mxCell>
                <mxCell id="TsNXSjigXuHvcVX3jNiz-58" value="notifications" style="ellipse;whiteSpace=wrap;html=1;align=center;fontStyle=4;" parent="eh5BEVfpL_TkkSjE6h3X-1" vertex="1">
                    <mxGeometry x="670" y="470" width="100" height="40" as="geometry"/>
                </mxCell>
                <mxCell id="TsNXSjigXuHvcVX3jNiz-59" value="search" style="ellipse;whiteSpace=wrap;html=1;align=center;fontStyle=4;" parent="eh5BEVfpL_TkkSjE6h3X-1" vertex="1">
                    <mxGeometry x="45" y="850" width="100" height="40" as="geometry"/>
                </mxCell>
                <mxCell id="TsNXSjigXuHvcVX3jNiz-60" value="search" style="ellipse;whiteSpace=wrap;html=1;align=center;fontStyle=4;" parent="eh5BEVfpL_TkkSjE6h3X-1" vertex="1">
                    <mxGeometry x="190" y="1000" width="100" height="40" as="geometry"/>
                </mxCell>
                <mxCell id="TsNXSjigXuHvcVX3jNiz-61" value="search" style="ellipse;whiteSpace=wrap;html=1;align=center;fontStyle=4;" parent="eh5BEVfpL_TkkSjE6h3X-1" vertex="1">
                    <mxGeometry x="325" y="1000" width="100" height="40" as="geometry"/>
                </mxCell>
                <mxCell id="TsNXSjigXuHvcVX3jNiz-62" value="pin comment's" style="ellipse;whiteSpace=wrap;html=1;align=center;fontStyle=4;" parent="eh5BEVfpL_TkkSjE6h3X-1" vertex="1">
                    <mxGeometry x="190" y="1060" width="100" height="40" as="geometry"/>
                </mxCell>
                <mxCell id="TsNXSjigXuHvcVX3jNiz-63" value="create channel" style="ellipse;whiteSpace=wrap;html=1;align=center;fontStyle=4;" parent="eh5BEVfpL_TkkSjE6h3X-1" vertex="1">
                    <mxGeometry x="45" y="910" width="100" height="40" as="geometry"/>
                </mxCell>
                <mxCell id="TsNXSjigXuHvcVX3jNiz-64" value="curd video" style="ellipse;whiteSpace=wrap;html=1;align=center;fontStyle=4;" parent="eh5BEVfpL_TkkSjE6h3X-1" vertex="1">
                    <mxGeometry x="325" y="1060" width="100" height="40" as="geometry"/>
                </mxCell>
                <mxCell id="TsNXSjigXuHvcVX3jNiz-65" value="subscribe" style="ellipse;whiteSpace=wrap;html=1;align=center;fontStyle=4;" parent="eh5BEVfpL_TkkSjE6h3X-1" vertex="1">
                    <mxGeometry x="190" y="1180" width="100" height="40" as="geometry"/>
                </mxCell>
                <mxCell id="TsNXSjigXuHvcVX3jNiz-66" value="subscribe" style="ellipse;whiteSpace=wrap;html=1;align=center;fontStyle=4;" parent="eh5BEVfpL_TkkSjE6h3X-1" vertex="1">
                    <mxGeometry x="325" y="1110" width="100" height="40" as="geometry"/>
                </mxCell>
                <mxCell id="TsNXSjigXuHvcVX3jNiz-68" value="history" style="ellipse;whiteSpace=wrap;html=1;align=center;fontStyle=4;" parent="eh5BEVfpL_TkkSjE6h3X-1" vertex="1">
                    <mxGeometry x="190" y="1230" width="100" height="40" as="geometry"/>
                </mxCell>
                <mxCell id="TsNXSjigXuHvcVX3jNiz-69" value="history" style="ellipse;whiteSpace=wrap;html=1;align=center;fontStyle=4;" parent="eh5BEVfpL_TkkSjE6h3X-1" vertex="1">
                    <mxGeometry x="325" y="1180" width="100" height="40" as="geometry"/>
                </mxCell>
                <mxCell id="HnJAS6MpPebQYXBKrFs9-0" value="explore" style="ellipse;whiteSpace=wrap;html=1;align=center;fontStyle=4;" parent="eh5BEVfpL_TkkSjE6h3X-1" vertex="1">
                    <mxGeometry x="670" y="590" width="100" height="40" as="geometry"/>
                </mxCell>
                <mxCell id="HnJAS6MpPebQYXBKrFs9-1" value="explore" style="ellipse;whiteSpace=wrap;html=1;align=center;fontStyle=4;" parent="eh5BEVfpL_TkkSjE6h3X-1" vertex="1">
                    <mxGeometry x="325" y="1240" width="100" height="40" as="geometry"/>
                </mxCell>
                <mxCell id="HnJAS6MpPebQYXBKrFs9-2" value="explore" style="ellipse;whiteSpace=wrap;html=1;align=center;fontStyle=4;" parent="eh5BEVfpL_TkkSjE6h3X-1" vertex="1">
                    <mxGeometry x="190" y="1280" width="100" height="40" as="geometry"/>
                </mxCell>
                <mxCell id="HnJAS6MpPebQYXBKrFs9-3" value="explore" style="ellipse;whiteSpace=wrap;html=1;align=center;fontStyle=4;" parent="eh5BEVfpL_TkkSjE6h3X-1" vertex="1">
                    <mxGeometry x="45" y="1090" width="100" height="40" as="geometry"/>
                </mxCell>
                <mxCell id="HnJAS6MpPebQYXBKrFs9-4" value="add catagories" style="ellipse;whiteSpace=wrap;html=1;align=center;fontStyle=4;" parent="eh5BEVfpL_TkkSjE6h3X-1" vertex="1">
                    <mxGeometry x="325" y="1290" width="100" height="40" as="geometry"/>
                </mxCell>
                <mxCell id="HnJAS6MpPebQYXBKrFs9-5" value="CURD playlist" style="ellipse;whiteSpace=wrap;html=1;align=center;fontStyle=4;" parent="eh5BEVfpL_TkkSjE6h3X-1" vertex="1">
                    <mxGeometry x="190" y="1340" width="100" height="40" as="geometry"/>
                </mxCell>
                <mxCell id="HnJAS6MpPebQYXBKrFs9-6" value="create library" style="ellipse;whiteSpace=wrap;html=1;align=center;fontStyle=4;" parent="eh5BEVfpL_TkkSjE6h3X-1" vertex="1">
                    <mxGeometry x="45" y="1160" width="100" height="40" as="geometry"/>
                </mxCell>
                <mxCell id="SzbSKy-pBBezSgQcqZ3q-0" value="CURD Ad's" style="ellipse;whiteSpace=wrap;html=1;align=center;fontStyle=4;" parent="eh5BEVfpL_TkkSjE6h3X-1" vertex="1">
                    <mxGeometry x="325" y="1350" width="100" height="40" as="geometry"/>
                </mxCell>
                <mxCell id="SzbSKy-pBBezSgQcqZ3q-1" value="add Ad's" style="ellipse;whiteSpace=wrap;html=1;align=center;fontStyle=4;" parent="eh5BEVfpL_TkkSjE6h3X-1" vertex="1">
                    <mxGeometry x="190" y="1400" width="100" height="40" as="geometry"/>
                </mxCell>
            </root>
        </mxGraphModel>
    </diagram>
    <diagram id="-VdLYK38b8M8pVN2Qyqt" name="frontend implementation plan">
        <mxGraphModel dx="734" dy="437" grid="1" gridSize="10" guides="1" tooltips="1" connect="1" arrows="1" fold="1" page="1" pageScale="1" pageWidth="850" pageHeight="1100" math="0" shadow="0">
            <root>
                <mxCell id="wWLOA3iwJc3qjhiKyIaU-0"/>
                <mxCell id="wWLOA3iwJc3qjhiKyIaU-1" parent="wWLOA3iwJc3qjhiKyIaU-0"/>
                <mxCell id="fZVTUhkL8-7VlL23ETMv-21" value="" style="html=1;shadow=0;dashed=0;align=center;verticalAlign=middle;shape=mxgraph.arrows2.arrow;dy=0.6;dx=40;direction=south;notch=0;" parent="wWLOA3iwJc3qjhiKyIaU-1" vertex="1">
                    <mxGeometry x="730" y="100" width="70" height="300" as="geometry"/>
                </mxCell>
                <mxCell id="fZVTUhkL8-7VlL23ETMv-0" value="create project" style="html=1;shadow=0;dashed=0;align=center;verticalAlign=middle;shape=mxgraph.arrows2.arrow;dy=0;dx=30;notch=30;" parent="wWLOA3iwJc3qjhiKyIaU-1" vertex="1">
                    <mxGeometry x="40" y="40" width="140" height="60" as="geometry"/>
                </mxCell>
                <mxCell id="fZVTUhkL8-7VlL23ETMv-1" value="clean up" style="html=1;shadow=0;dashed=0;align=center;verticalAlign=middle;shape=mxgraph.arrows2.arrow;dy=0;dx=30;notch=30;" parent="wWLOA3iwJc3qjhiKyIaU-1" vertex="1">
                    <mxGeometry x="150" y="40" width="140" height="60" as="geometry"/>
                </mxCell>
                <mxCell id="fZVTUhkL8-7VlL23ETMv-2" value="color's css file" style="html=1;shadow=0;dashed=0;align=center;verticalAlign=middle;shape=mxgraph.arrows2.arrow;dy=0;dx=30;notch=30;" parent="wWLOA3iwJc3qjhiKyIaU-1" vertex="1">
                    <mxGeometry x="260" y="40" width="140" height="60" as="geometry"/>
                </mxCell>
                <mxCell id="fZVTUhkL8-7VlL23ETMv-3" value="routers setup" style="html=1;shadow=0;dashed=0;align=center;verticalAlign=middle;shape=mxgraph.arrows2.arrow;dy=0;dx=30;notch=30;" parent="wWLOA3iwJc3qjhiKyIaU-1" vertex="1">
                    <mxGeometry x="370" y="40" width="140" height="60" as="geometry"/>
                </mxCell>
                <mxCell id="fZVTUhkL8-7VlL23ETMv-4" value="components" style="html=1;shadow=0;dashed=0;align=center;verticalAlign=middle;shape=mxgraph.arrows2.arrow;dy=0;dx=30;notch=30;" parent="wWLOA3iwJc3qjhiKyIaU-1" vertex="1">
                    <mxGeometry x="590" y="40" width="140" height="60" as="geometry"/>
                </mxCell>
                <mxCell id="fZVTUhkL8-7VlL23ETMv-5" value="global context" style="html=1;shadow=0;dashed=0;align=center;verticalAlign=middle;shape=mxgraph.arrows2.arrow;dy=0;dx=30;notch=30;" parent="wWLOA3iwJc3qjhiKyIaU-1" vertex="1">
                    <mxGeometry x="480" y="40" width="140" height="60" as="geometry"/>
                </mxCell>
                <mxCell id="fZVTUhkL8-7VlL23ETMv-6" value="pages" style="html=1;shadow=0;dashed=0;align=center;verticalAlign=middle;shape=mxgraph.arrows2.arrow;dy=0;dx=30;notch=30;" parent="wWLOA3iwJc3qjhiKyIaU-1" vertex="1">
                    <mxGeometry x="700" y="40" width="140" height="60" as="geometry"/>
                </mxCell>
                <mxCell id="fZVTUhkL8-7VlL23ETMv-7" value="" style="html=1;shadow=0;dashed=0;align=center;verticalAlign=middle;shape=mxgraph.arrows2.arrow;dy=0.6;dx=40;direction=south;notch=0;" parent="wWLOA3iwJc3qjhiKyIaU-1" vertex="1">
                    <mxGeometry x="610" y="100" width="70" height="100" as="geometry"/>
                </mxCell>
                <mxCell id="fZVTUhkL8-7VlL23ETMv-9" value="navbar" style="html=1;shadow=0;dashed=0;align=center;verticalAlign=middle;shape=mxgraph.arrows2.arrow;dy=0;dx=30;notch=30;" parent="wWLOA3iwJc3qjhiKyIaU-1" vertex="1">
                    <mxGeometry x="600" y="200" width="100" height="60" as="geometry"/>
                </mxCell>
                <mxCell id="fZVTUhkL8-7VlL23ETMv-10" value="menu" style="html=1;shadow=0;dashed=0;align=center;verticalAlign=middle;shape=mxgraph.arrows2.arrow;dy=0;dx=30;notch=30;" parent="wWLOA3iwJc3qjhiKyIaU-1" vertex="1">
                    <mxGeometry x="670" y="200" width="100" height="60" as="geometry"/>
                </mxCell>
                <mxCell id="fZVTUhkL8-7VlL23ETMv-11" value="search" style="html=1;shadow=0;dashed=0;align=center;verticalAlign=middle;shape=mxgraph.arrows2.arrow;dy=0;dx=30;notch=30;" parent="wWLOA3iwJc3qjhiKyIaU-1" vertex="1">
                    <mxGeometry x="740" y="200" width="100" height="60" as="geometry"/>
                </mxCell>
                <mxCell id="fZVTUhkL8-7VlL23ETMv-12" value="login /register/logout" style="html=1;shadow=0;dashed=0;align=center;verticalAlign=middle;shape=mxgraph.arrows2.arrow;dy=0;dx=30;notch=30;" parent="wWLOA3iwJc3qjhiKyIaU-1" vertex="1">
                    <mxGeometry x="910" y="200" width="190" height="60" as="geometry"/>
                </mxCell>
                <mxCell id="fZVTUhkL8-7VlL23ETMv-13" value="notifications" style="html=1;shadow=0;dashed=0;align=center;verticalAlign=middle;shape=mxgraph.arrows2.arrow;dy=0;dx=30;notch=30;" parent="wWLOA3iwJc3qjhiKyIaU-1" vertex="1">
                    <mxGeometry x="810" y="200" width="130" height="60" as="geometry"/>
                </mxCell>
                <mxCell id="fZVTUhkL8-7VlL23ETMv-14" value="card" style="html=1;shadow=0;dashed=0;align=center;verticalAlign=middle;shape=mxgraph.arrows2.arrow;dy=0;dx=30;notch=30;" parent="wWLOA3iwJc3qjhiKyIaU-1" vertex="1">
                    <mxGeometry x="1070" y="200" width="100" height="60" as="geometry"/>
                </mxCell>
                <mxCell id="fZVTUhkL8-7VlL23ETMv-15" value="video player" style="html=1;shadow=0;dashed=0;align=center;verticalAlign=middle;shape=mxgraph.arrows2.arrow;dy=0;dx=30;notch=30;" parent="wWLOA3iwJc3qjhiKyIaU-1" vertex="1">
                    <mxGeometry x="1140" y="200" width="150" height="60" as="geometry"/>
                </mxCell>
                <mxCell id="fZVTUhkL8-7VlL23ETMv-16" value="like/ dislke / create library" style="html=1;shadow=0;dashed=0;align=center;verticalAlign=middle;shape=mxgraph.arrows2.arrow;dy=0;dx=30;notch=30;" parent="wWLOA3iwJc3qjhiKyIaU-1" vertex="1">
                    <mxGeometry x="1260" y="200" width="210" height="60" as="geometry"/>
                </mxCell>
                <mxCell id="fZVTUhkL8-7VlL23ETMv-17" value="comment" style="html=1;shadow=0;dashed=0;align=center;verticalAlign=middle;shape=mxgraph.arrows2.arrow;dy=0;dx=30;notch=30;" parent="wWLOA3iwJc3qjhiKyIaU-1" vertex="1">
                    <mxGeometry x="1440" y="200" width="140" height="60" as="geometry"/>
                </mxCell>
                <mxCell id="fZVTUhkL8-7VlL23ETMv-18" value="ad's" style="html=1;shadow=0;dashed=0;align=center;verticalAlign=middle;shape=mxgraph.arrows2.arrow;dy=0;dx=30;notch=30;" parent="wWLOA3iwJc3qjhiKyIaU-1" vertex="1">
                    <mxGeometry x="1550" y="200" width="100" height="60" as="geometry"/>
                </mxCell>
                <mxCell id="fZVTUhkL8-7VlL23ETMv-19" value="related video" style="html=1;shadow=0;dashed=0;align=center;verticalAlign=middle;shape=mxgraph.arrows2.arrow;dy=0;dx=30;notch=30;" parent="wWLOA3iwJc3qjhiKyIaU-1" vertex="1">
                    <mxGeometry x="1620" y="200" width="140" height="60" as="geometry"/>
                </mxCell>
                <mxCell id="fZVTUhkL8-7VlL23ETMv-20" value="axios" style="html=1;shadow=0;dashed=0;align=center;verticalAlign=middle;shape=mxgraph.arrows2.arrow;dy=0;dx=30;notch=30;" parent="wWLOA3iwJc3qjhiKyIaU-1" vertex="1">
                    <mxGeometry x="810" y="40" width="140" height="60" as="geometry"/>
                </mxCell>
                <mxCell id="fZVTUhkL8-7VlL23ETMv-22" value="404" style="html=1;shadow=0;dashed=0;align=center;verticalAlign=middle;shape=mxgraph.arrows2.arrow;dy=0;dx=30;notch=30;" parent="wWLOA3iwJc3qjhiKyIaU-1" vertex="1">
                    <mxGeometry x="720" y="400" width="100" height="60" as="geometry"/>
                </mxCell>
                <mxCell id="fZVTUhkL8-7VlL23ETMv-23" value="home" style="html=1;shadow=0;dashed=0;align=center;verticalAlign=middle;shape=mxgraph.arrows2.arrow;dy=0;dx=30;notch=30;" parent="wWLOA3iwJc3qjhiKyIaU-1" vertex="1">
                    <mxGeometry x="790" y="400" width="100" height="60" as="geometry"/>
                </mxCell>
                <mxCell id="fZVTUhkL8-7VlL23ETMv-24" value="video" style="html=1;shadow=0;dashed=0;align=center;verticalAlign=middle;shape=mxgraph.arrows2.arrow;dy=0;dx=30;notch=30;" parent="wWLOA3iwJc3qjhiKyIaU-1" vertex="1">
                    <mxGeometry x="860" y="400" width="100" height="60" as="geometry"/>
                </mxCell>
                <mxCell id="fZVTUhkL8-7VlL23ETMv-25" value="CURD channel" style="html=1;shadow=0;dashed=0;align=center;verticalAlign=middle;shape=mxgraph.arrows2.arrow;dy=0;dx=30;notch=30;" parent="wWLOA3iwJc3qjhiKyIaU-1" vertex="1">
                    <mxGeometry x="930" y="400" width="150" height="60" as="geometry"/>
                </mxCell>
                <mxCell id="fZVTUhkL8-7VlL23ETMv-26" value="CURD video" style="html=1;shadow=0;dashed=0;align=center;verticalAlign=middle;shape=mxgraph.arrows2.arrow;dy=0;dx=30;notch=30;" parent="wWLOA3iwJc3qjhiKyIaU-1" vertex="1">
                    <mxGeometry x="1050" y="400" width="150" height="60" as="geometry"/>
                </mxCell>
                <mxCell id="fZVTUhkL8-7VlL23ETMv-27" value="CURD video" style="html=1;shadow=0;dashed=0;align=center;verticalAlign=middle;shape=mxgraph.arrows2.arrow;dy=0;dx=30;notch=30;" parent="wWLOA3iwJc3qjhiKyIaU-1" vertex="1">
                    <mxGeometry x="1170" y="400" width="150" height="60" as="geometry"/>
                </mxCell>
                <mxCell id="A4lxae3fXJKRudWxwIGb-0" value="CURD playlist" style="html=1;shadow=0;dashed=0;align=center;verticalAlign=middle;shape=mxgraph.arrows2.arrow;dy=0;dx=30;notch=30;" parent="wWLOA3iwJc3qjhiKyIaU-1" vertex="1">
                    <mxGeometry x="1290" y="400" width="150" height="60" as="geometry"/>
                </mxCell>
                <mxCell id="A4lxae3fXJKRudWxwIGb-1" value="CURD library" style="html=1;shadow=0;dashed=0;align=center;verticalAlign=middle;shape=mxgraph.arrows2.arrow;dy=0;dx=30;notch=30;" parent="wWLOA3iwJc3qjhiKyIaU-1" vertex="1">
                    <mxGeometry x="1410" y="400" width="150" height="60" as="geometry"/>
                </mxCell>
                <mxCell id="YRTAszl0b6VMwbs7I0FN-1" value="curd operations on video, channel, playlist" style="html=1;shadow=0;dashed=0;align=center;verticalAlign=middle;shape=mxgraph.arrows2.arrow;dy=0;dx=30;notch=30;" parent="wWLOA3iwJc3qjhiKyIaU-1" vertex="1">
                    <mxGeometry x="1840" y="200" width="300" height="60" as="geometry"/>
                </mxCell>
                <mxCell id="YRTAszl0b6VMwbs7I0FN-2" value="all video" style="html=1;shadow=0;dashed=0;align=center;verticalAlign=middle;shape=mxgraph.arrows2.arrow;dy=0;dx=30;notch=30;" parent="wWLOA3iwJc3qjhiKyIaU-1" vertex="1">
                    <mxGeometry x="2110" y="200" width="140" height="60" as="geometry"/>
                </mxCell>
                <mxCell id="YRTAszl0b6VMwbs7I0FN-3" value="all channels" style="html=1;shadow=0;dashed=0;align=center;verticalAlign=middle;shape=mxgraph.arrows2.arrow;dy=0;dx=30;notch=30;" parent="wWLOA3iwJc3qjhiKyIaU-1" vertex="1">
                    <mxGeometry x="2220" y="200" width="140" height="60" as="geometry"/>
                </mxCell>
                <mxCell id="YRTAszl0b6VMwbs7I0FN-4" value="channel page" style="html=1;shadow=0;dashed=0;align=center;verticalAlign=middle;shape=mxgraph.arrows2.arrow;dy=0;dx=30;notch=30;" parent="wWLOA3iwJc3qjhiKyIaU-1" vertex="1">
                    <mxGeometry x="1730" y="200" width="140" height="60" as="geometry"/>
                </mxCell>
            </root>
        </mxGraphModel>
    </diagram>
    <diagram id="Ho4INXCkTcVKWp4R1i_S" name="backend implementation plan">
        <mxGraphModel dx="734" dy="437" grid="1" gridSize="10" guides="1" tooltips="1" connect="1" arrows="1" fold="1" page="1" pageScale="1" pageWidth="850" pageHeight="1100" math="0" shadow="0">
            <root>
                <mxCell id="qjKSkLyq_DMH9oySy2jy-0"/>
                <mxCell id="qjKSkLyq_DMH9oySy2jy-1" parent="qjKSkLyq_DMH9oySy2jy-0"/>
                <mxCell id="qjKSkLyq_DMH9oySy2jy-4" value="empty project" style="html=1;shadow=0;dashed=0;align=center;verticalAlign=middle;shape=mxgraph.arrows2.arrow;dy=0;dx=30;notch=30;" parent="qjKSkLyq_DMH9oySy2jy-1" vertex="1">
                    <mxGeometry x="40" y="40" width="150" height="60" as="geometry"/>
                </mxCell>
                <mxCell id="qjKSkLyq_DMH9oySy2jy-5" value="create app" style="html=1;shadow=0;dashed=0;align=center;verticalAlign=middle;shape=mxgraph.arrows2.arrow;dy=0;dx=30;notch=30;" parent="qjKSkLyq_DMH9oySy2jy-1" vertex="1">
                    <mxGeometry x="160" y="40" width="150" height="60" as="geometry"/>
                </mxCell>
                <mxCell id="qjKSkLyq_DMH9oySy2jy-8" value="create app model" style="html=1;shadow=0;dashed=0;align=center;verticalAlign=middle;shape=mxgraph.arrows2.arrow;dy=0;dx=30;notch=30;" parent="qjKSkLyq_DMH9oySy2jy-1" vertex="1">
                    <mxGeometry x="280" y="40" width="170" height="60" as="geometry"/>
                </mxCell>
                <mxCell id="qjKSkLyq_DMH9oySy2jy-9" value="create app validation" style="html=1;shadow=0;dashed=0;align=center;verticalAlign=middle;shape=mxgraph.arrows2.arrow;dy=0;dx=30;notch=30;" parent="qjKSkLyq_DMH9oySy2jy-1" vertex="1">
                    <mxGeometry x="420" y="40" width="200" height="60" as="geometry"/>
                </mxCell>
                <mxCell id="qjKSkLyq_DMH9oySy2jy-10" value="create media files storage" style="html=1;shadow=0;dashed=0;align=center;verticalAlign=middle;shape=mxgraph.arrows2.arrow;dy=0;dx=30;notch=30;" parent="qjKSkLyq_DMH9oySy2jy-1" vertex="1">
                    <mxGeometry x="590" y="40" width="220" height="60" as="geometry"/>
                </mxCell>
                <mxCell id="qjKSkLyq_DMH9oySy2jy-11" value="create serializers" style="html=1;shadow=0;dashed=0;align=center;verticalAlign=middle;shape=mxgraph.arrows2.arrow;dy=0;dx=30;notch=30;" parent="qjKSkLyq_DMH9oySy2jy-1" vertex="1">
                    <mxGeometry x="780" y="40" width="160" height="60" as="geometry"/>
                </mxCell>
                <mxCell id="qjKSkLyq_DMH9oySy2jy-12" value="create views" style="html=1;shadow=0;dashed=0;align=center;verticalAlign=middle;shape=mxgraph.arrows2.arrow;dy=0;dx=30;notch=30;" parent="qjKSkLyq_DMH9oySy2jy-1" vertex="1">
                    <mxGeometry x="910" y="40" width="150" height="60" as="geometry"/>
                </mxCell>
                <mxCell id="qjKSkLyq_DMH9oySy2jy-13" value="create urls" style="html=1;shadow=0;dashed=0;align=center;verticalAlign=middle;shape=mxgraph.arrows2.arrow;dy=0;dx=30;notch=30;" parent="qjKSkLyq_DMH9oySy2jy-1" vertex="1">
                    <mxGeometry x="1030" y="40" width="150" height="60" as="geometry"/>
                </mxCell>
                <mxCell id="qjKSkLyq_DMH9oySy2jy-14" value="" style="curved=1;endArrow=classic;html=1;rounded=0;exitX=1;exitY=0.5;exitDx=0;exitDy=0;exitPerimeter=0;entryX=0;entryY=0.5;entryDx=30;entryDy=0;entryPerimeter=0;" parent="qjKSkLyq_DMH9oySy2jy-1" source="qjKSkLyq_DMH9oySy2jy-13" target="qjKSkLyq_DMH9oySy2jy-5" edge="1">
                    <mxGeometry width="50" height="50" relative="1" as="geometry">
                        <mxPoint x="680" y="90" as="sourcePoint"/>
                        <mxPoint x="730" y="40" as="targetPoint"/>
                        <Array as="points">
                            <mxPoint x="1350" y="210"/>
                            <mxPoint x="-190" y="150"/>
                        </Array>
                    </mxGeometry>
                </mxCell>
                <mxCell id="ty5MCTC-jc0mvIedBO5m-0" value="&lt;p style=&quot;margin: 0px ; margin-top: 4px ; text-align: center&quot;&gt;&lt;b&gt;empty project&lt;/b&gt;&lt;/p&gt;&lt;hr size=&quot;1&quot;&gt;&lt;p style=&quot;margin: 0px ; margin-left: 4px&quot;&gt;1. clean up&lt;/p&gt;&lt;p style=&quot;margin: 0px ; margin-left: 4px&quot;&gt;2. installing dependency&amp;nbsp;&lt;/p&gt;&lt;p style=&quot;margin: 0px ; margin-left: 4px&quot;&gt;3. putting django key in env&amp;nbsp;&lt;/p&gt;&lt;p style=&quot;margin: 0px ; margin-left: 4px&quot;&gt;4. setting up password hasher&lt;/p&gt;&lt;p style=&quot;margin: 0px ; margin-left: 4px&quot;&gt;5. rest framework settings&lt;/p&gt;&lt;p style=&quot;margin: 0px ; margin-left: 4px&quot;&gt;6. static files and meda files settings&lt;/p&gt;" style="verticalAlign=top;align=left;overflow=fill;fontSize=12;fontFamily=Helvetica;html=1;fillColor=#e1d5e7;strokeColor=#9673a6;" parent="qjKSkLyq_DMH9oySy2jy-1" vertex="1">
                    <mxGeometry x="50" y="240" width="200" height="130" as="geometry"/>
                </mxCell>
                <mxCell id="ty5MCTC-jc0mvIedBO5m-1" value="&lt;p style=&quot;margin: 0px ; margin-top: 4px ; text-align: center&quot;&gt;&lt;b&gt;create app&lt;/b&gt;&lt;/p&gt;&lt;hr size=&quot;1&quot;&gt;&lt;p style=&quot;margin: 0px ; margin-left: 4px&quot;&gt;1. create app with name&lt;/p&gt;&lt;p style=&quot;margin: 0px ; margin-left: 4px&quot;&gt;2. cleanup&lt;/p&gt;&lt;p style=&quot;margin: 0px ; margin-left: 4px&quot;&gt;3. make models&lt;/p&gt;&lt;p style=&quot;margin: 0px ; margin-left: 4px&quot;&gt;4. adding str name&lt;/p&gt;&lt;p style=&quot;margin: 0px ; margin-left: 4px&quot;&gt;5. adding meta data&lt;/p&gt;&lt;p style=&quot;margin: 0px ; margin-left: 4px&quot;&gt;6. add to admin site&lt;/p&gt;" style="verticalAlign=top;align=left;overflow=fill;fontSize=12;fontFamily=Helvetica;html=1;fillColor=#dae8fc;strokeColor=#6c8ebf;" parent="qjKSkLyq_DMH9oySy2jy-1" vertex="1">
                    <mxGeometry x="280" y="240" width="200" height="120" as="geometry"/>
                </mxCell>
                <mxCell id="ty5MCTC-jc0mvIedBO5m-2" value="&lt;p style=&quot;margin: 0px ; margin-top: 4px ; text-align: center&quot;&gt;&lt;b&gt;create validation&lt;/b&gt;&lt;/p&gt;&lt;hr size=&quot;1&quot;&gt;&lt;p style=&quot;margin: 0px ; margin-left: 4px&quot;&gt;1. create validators.py file&lt;/p&gt;&lt;p style=&quot;margin: 0px ; margin-left: 4px&quot;&gt;2. import dependence&lt;/p&gt;&lt;p style=&quot;margin: 0px ; margin-left: 4px&quot;&gt;3. check for data&lt;/p&gt;" style="verticalAlign=top;align=left;overflow=fill;fontSize=12;fontFamily=Helvetica;html=1;fillColor=#d5e8d4;strokeColor=#82b366;" parent="qjKSkLyq_DMH9oySy2jy-1" vertex="1">
                    <mxGeometry x="520" y="240" width="200" height="80" as="geometry"/>
                </mxCell>
                <mxCell id="ty5MCTC-jc0mvIedBO5m-3" style="edgeStyle=orthogonalEdgeStyle;rounded=0;orthogonalLoop=1;jettySize=auto;html=1;exitX=0.5;exitY=1;exitDx=0;exitDy=0;fontSize=15;" parent="qjKSkLyq_DMH9oySy2jy-1" source="ty5MCTC-jc0mvIedBO5m-2" target="ty5MCTC-jc0mvIedBO5m-2" edge="1">
                    <mxGeometry relative="1" as="geometry"/>
                </mxCell>
                <mxCell id="ty5MCTC-jc0mvIedBO5m-4" value="&lt;p style=&quot;margin: 0px ; margin-top: 4px ; text-align: center&quot;&gt;&lt;b&gt;create serilizers&lt;/b&gt;&lt;/p&gt;&lt;hr size=&quot;1&quot;&gt;&lt;p style=&quot;margin: 0px ; margin-left: 4px&quot;&gt;1. create serilzers.py file&lt;/p&gt;&lt;p style=&quot;margin: 0px ; margin-left: 4px&quot;&gt;2. import dependence&lt;/p&gt;&lt;p style=&quot;margin: 0px ; margin-left: 4px&quot;&gt;3. make serilizer's&lt;/p&gt;" style="verticalAlign=top;align=left;overflow=fill;fontSize=12;fontFamily=Helvetica;html=1;fillColor=#ffe6cc;strokeColor=#d79b00;" parent="qjKSkLyq_DMH9oySy2jy-1" vertex="1">
                    <mxGeometry x="760" y="240" width="200" height="80" as="geometry"/>
                </mxCell>
                <mxCell id="abhU5pCip5KvUPZPnI_h-0" value="&lt;p style=&quot;margin: 0px ; margin-top: 4px ; text-align: center&quot;&gt;&lt;b&gt;create url&lt;/b&gt;&lt;/p&gt;&lt;hr size=&quot;1&quot;&gt;&lt;p style=&quot;margin: 0px ; margin-left: 4px&quot;&gt;1. create url&lt;/p&gt;&lt;p style=&quot;margin: 0px ; margin-left: 4px&quot;&gt;2. test&lt;/p&gt;&lt;p style=&quot;margin: 0px ; margin-left: 4px&quot;&gt;3. security&lt;/p&gt;" style="verticalAlign=top;align=left;overflow=fill;fontSize=12;fontFamily=Helvetica;html=1;fillColor=#f8cecc;strokeColor=#b85450;" parent="qjKSkLyq_DMH9oySy2jy-1" vertex="1">
                    <mxGeometry x="1000" y="240" width="200" height="80" as="geometry"/>
                </mxCell>
            </root>
        </mxGraphModel>
    </diagram>
</mxfile>